<svg width="457" height="695" viewBox="0 0 457 695" fill="none" xmlns="http://www.w3.org/2000/svg">
<g filter="url(#filter0_bf_12_25)">
<path d="M47.3556 4L231.25 31.1494L427.208 25.3821L402.087 690.997L214.028 669.111L29.3766 670.017L47.3556 4Z" fill="#FCE2DB"/>
<path d="M213.994 668.109L30.4037 669.01L48.3245 5.1508L231.132 32.1398L231.22 32.1528L231.308 32.1502L426.168 26.4152L401.129 689.881L214.114 668.116L214.054 668.109L213.994 668.109Z" stroke="black" stroke-width="2" stroke-miterlimit="16"/>
</g>
<path d="M42.3763 21.6372H224.138H414.208V673.762H231.824H42.3763V21.6372Z" fill="#7A4495"/>
<path d="M442.044 616.768L445.402 633.557H456.268L447.477 643.933L450.835 660.722L442.044 650.346L433.253 660.722L436.61 643.933L427.819 633.557H438.686L442.044 616.768Z" fill="#B270A2"/>
<path d="M17.6568 21.6372L21.621 38.8407H34.4495L24.071 49.473L28.0352 66.6765L17.6568 56.0442L7.2784 66.6765L11.2426 49.473L0.864185 38.8407H13.6926L17.6568 21.6372Z" fill="#B270A2"/>
<defs>
<filter id="filter0_bf_12_25" x="25.3765" y="0" width="405.831" height="694.997" filterUnits="userSpaceOnUse" color-interpolation-filters="sRGB">
<feFlood flood-opacity="0" result="BackgroundImageFix"/>
<feGaussianBlur in="BackgroundImage" stdDeviation="2"/>
<feComposite in2="SourceAlpha" operator="in" result="effect1_backgroundBlur_12_25"/>
<feBlend mode="normal" in="SourceGraphic" in2="effect1_backgroundBlur_12_25" result="shape"/>
<feGaussianBlur stdDeviation="2" result="effect2_foregroundBlur_12_25"/>
</filter>
</defs>
</svg>
